<?xml version="1.0" standalone="no"?>
<!DOCTYPE svg PUBLIC "-//W3C//DTD SVG 20010904//EN"
 "http://www.w3.org/TR/2001/REC-SVG-20010904/DTD/svg10.dtd">
<svg version="1.0" xmlns="http://www.w3.org/2000/svg"
 width="818.000000pt" height="1280.000000pt" viewBox="0 0 818.000000 1280.000000"
 preserveAspectRatio="xMidYMid meet">
<metadata>
Created by potrace 1.15, written by Peter Selinger 2001-2017
</metadata>
<g transform="translate(0.000000,1280.000000) scale(0.100000,-0.100000)"
fill="#fff" stroke="none">
<path d="M3870 12794 c-243 -22 -481 -66 -679 -125 -207 -62 -310 -102 -516
-204 -579 -285 -1045 -726 -1373 -1300 -169 -297 -301 -673 -361 -1030 -43
-255 -43 -262 -48 -1767 l-4 -1458 -445 0 -444 0 0 -3455 0 -3455 4090 0 4090
0 0 3455 0 3455 -447 0 -448 0 3 1282 c3 1294 -3 1629 -33 1838 -80 569 -286
1064 -627 1511 -297 391 -680 706 -1123 924 -341 168 -639 259 -1020 310 -115
16 -515 28 -615 19z m370 -1024 c517 -38 978 -243 1357 -603 273 -260 498
-642 592 -1007 70 -277 65 -146 69 -1777 l3 -1473 -2171 0 -2171 0 3 1473 c4
1631 -1 1500 69 1777 107 415 364 822 698 1101 355 298 788 476 1236 509 146
10 177 10 315 0z"/>
</g>
</svg>
